<svg width="50" height="50" viewBox="0 0 50 50" fill="none" xmlns="http://www.w3.org/2000/svg">
<path d="M12.4999 15.909C14.3827 15.909 15.909 14.3827 15.909 12.4999C15.909 10.6171 14.3827 9.09082 12.4999 9.09082C10.6171 9.09082 9.09082 10.6171 9.09082 12.4999C9.09082 14.3827 10.6171 15.909 12.4999 15.909Z" fill="white"/>
<path d="M9.09082 20.4544C9.09082 19.1992 10.1084 18.1816 11.3635 18.1816H13.6363C14.8915 18.1816 15.909 19.1992 15.909 20.4544V38.6362C15.909 39.8914 14.8915 40.9089 13.6363 40.9089H11.3635C10.1084 40.9089 9.09082 39.8914 9.09082 38.6362V20.4544Z" fill="white"/>
<path d="M22.7273 40.9089H25C26.2553 40.9089 27.2728 39.8914 27.2728 38.6362V28.4089C27.2728 24.9998 34.091 22.7271 34.091 27.2725V38.6371C34.091 39.8923 35.1085 40.9089 36.3637 40.9089H38.6364C39.8916 40.9089 40.9091 39.8914 40.9091 38.6362V24.9998C40.9091 20.4544 37.5 18.1816 32.9546 18.1816C28.4091 18.1816 27.2728 21.5907 27.2728 21.5907V20.4544C27.2728 19.1992 26.2553 18.1816 25 18.1816H22.7273C21.4721 18.1816 20.4546 19.1992 20.4546 20.4544V38.6362C20.4546 39.8914 21.4721 40.9089 22.7273 40.9089Z" fill="white"/>
<path fill-rule="evenodd" clip-rule="evenodd" d="M43.1818 0C46.9475 0 50 3.05261 50 6.81818V43.1818C50 46.9475 46.9475 50 43.1818 50H6.81818C3.05261 50 0 46.9475 0 43.1818V6.81818C0 3.05261 3.05261 0 6.81818 0H43.1818ZM43.1818 4.54545C44.437 4.54545 45.4545 5.563 45.4545 6.81818V43.1818C45.4545 44.437 44.437 45.4545 43.1818 45.4545H6.81818C5.563 45.4545 4.54545 44.437 4.54545 43.1818V6.81818C4.54545 5.563 5.563 4.54545 6.81818 4.54545H43.1818Z" fill="white"/>
</svg>
